<svg xmlns="http://www.w3.org/2000/svg" width="90" height="68" viewBox="0 0 45 34">
  <metadata><?xpacket begin="﻿" id="W5M0MpCehiHzreSzNTczkc9d"?>
<x:xmpmeta xmlns:x="adobe:ns:meta/" x:xmptk="Adobe XMP Core 5.6-c138 79.159824, 2016/09/14-01:09:01        ">
   <rdf:RDF xmlns:rdf="http://www.w3.org/1999/02/22-rdf-syntax-ns#">
      <rdf:Description rdf:about=""/>
   </rdf:RDF>
</x:xmpmeta>
                                                                                                    
                                                                                                    
                                                                                                    
                                                                                                    
                                                                                                    
                                                                                                    
                                                                                                    
                                                                                                    
                                                                                                    
                                                                                                    
                                                                                                    
                                                                                                    
                                                                                                    
                                                                                                    
                                                                                                    
                                                                                                    
                                                                                                    
                                                                                                    
                                                                                                    
                                                                                                    
                           
<?xpacket end="w"?></metadata>
<defs>
    <style>
      .cls-1 {
        fill-rule: evenodd;
      }
    </style>
  </defs>
  <path id="A" class="cls-1" d="M17.078,33.188V34.1h15.7V33.188H30.566L18.47,0.212H14.534L2.294,33.188H0.038V34.1H7.382V33.188h-3.6l3.7-10.368h9.5l3.5,10.368H17.078ZM16.6,21.764H7.91L12.422,9.188Z"/>
  <path id="B" class="cls-1" d="M12.77,1.119h3.157v13.07C15.926,23.026,24,26,24,26l3.048,8.012q7.478,0,11.462-2.1t3.983-7.366q0-7.2-9.713-8.4v-0.1q8.013-1.3,8.013-7.922a6.373,6.373,0,0,0-3.375-6.11Q34.041,0.2,27.291.2H12.77V1.119ZM26.514,16.913q3.351,0,4.662,1.594a7.4,7.4,0,0,1,1.311,4.782v2.56a10.957,10.957,0,0,1-1.069,5.41,3.962,3.962,0,0,1-3.74,1.835H25.4V16.913h1.117ZM26.951,1.119q2.477,0,3.351,1.425t0.874,5v2.27a8.655,8.655,0,0,1-1,4.661A3.888,3.888,0,0,1,26.659,16H25.4V1.119h1.554Z"/>
</svg>
