<svg xmlns="http://www.w3.org/2000/svg" width="90" height="68" viewBox="0 0 45 34"><defs><style>.cls-1{fill-rule:evenodd}</style></defs><path id="A" class="cls-1" d="M17.078 33.188v.912h15.7v-.912h-2.212L18.47.212h-3.936L2.294 33.188H.038v.912h7.344v-.912h-3.6l3.7-10.368h9.5l3.5 10.368h-3.404zM16.6 21.764H7.91l4.512-12.576z"/><path id="B" class="cls-1" d="M12.77 1.119h3.157v13.07C15.926 23.026 24 26 24 26l3.048 8.012q7.478 0 11.462-2.1t3.983-7.366q0-7.2-9.713-8.4v-.1q8.013-1.3 8.013-7.922a6.373 6.373 0 0 0-3.375-6.11Q34.041.2 27.291.2H12.77v.919zm13.744 15.794q3.351 0 4.662 1.594a7.4 7.4 0 0 1 1.311 4.782v2.56a10.957 10.957 0 0 1-1.069 5.41 3.962 3.962 0 0 1-3.74 1.835H25.4V16.913h1.117zm.437-15.794q2.477 0 3.351 1.425t.874 5v2.27a8.655 8.655 0 0 1-1 4.661A3.888 3.888 0 0 1 26.659 16H25.4V1.119h1.554z"/></svg>